<svg width="18" height="18" viewBox="0 0 18 18" fill="none" xmlns="http://www.w3.org/2000/svg">
<g clip-path="url(#clip0)">
<path d="M15.5773 18H2.84951C1.2781 18 0 16.7385 0 15.1875V2.0625C0 0.92475 0.936918 0 2.08964 0H11.588C12.7407 0 13.6776 0.92475 13.6776 2.0625V2.25H16.1472C17.2999 2.25 18.2368 3.17475 18.2368 4.3125V15.1875C18.2368 16.6245 17.1396 17.8125 15.7285 17.9797C15.6806 17.9932 15.6297 18 15.5773 18ZM13.6776 3.375V15.1875C13.6776 16.1182 14.4443 16.875 15.3873 16.875C16.3303 16.875 17.097 16.1182 17.097 15.1875V4.3125C17.097 3.79575 16.6708 3.375 16.1472 3.375H13.6776ZM2.08964 1.125C1.56609 1.125 1.1398 1.54575 1.1398 2.0625V15.1875C1.1398 16.1182 1.90651 16.875 2.84951 16.875H13.1093C12.7506 16.4048 12.5378 15.8197 12.5378 15.1875V2.0625C12.5378 1.54575 12.1115 1.125 11.588 1.125H2.08964Z" fill="#D05B5B"/>
<path d="M6.26861 6.75H2.8492C2.53461 6.75 2.2793 6.498 2.2793 6.1875V2.8125C2.2793 2.502 2.53461 2.25 2.8492 2.25H6.26861C6.58319 2.25 6.83851 2.502 6.83851 2.8125V6.1875C6.83851 6.498 6.58319 6.75 6.26861 6.75ZM3.4191 5.625H5.6987V3.375H3.4191V5.625Z" fill="#D05B5B"/>
<path d="M10.828 4.125H8.9283C8.61371 4.125 8.3584 3.873 8.3584 3.5625C8.3584 3.252 8.61371 3 8.9283 3H10.828C11.1426 3 11.3979 3.252 11.3979 3.5625C11.3979 3.873 11.1426 4.125 10.828 4.125Z" fill="#D05B5B"/>
<path d="M10.828 6.375H8.9283C8.61371 6.375 8.3584 6.123 8.3584 5.8125C8.3584 5.502 8.61371 5.25 8.9283 5.25H10.828C11.1426 5.25 11.3979 5.502 11.3979 5.8125C11.3979 6.123 11.1426 6.375 10.828 6.375Z" fill="#D05B5B"/>
<path d="M10.8278 9.375H2.8492C2.53461 9.375 2.2793 9.123 2.2793 8.8125C2.2793 8.502 2.53461 8.25 2.8492 8.25H10.8278C11.1424 8.25 11.3977 8.502 11.3977 8.8125C11.3977 9.123 11.1424 9.375 10.8278 9.375Z" fill="#D05B5B"/>
<path d="M10.8278 12.1875H2.8492C2.53461 12.1875 2.2793 11.9355 2.2793 11.625C2.2793 11.3145 2.53461 11.0625 2.8492 11.0625H10.8278C11.1424 11.0625 11.3977 11.3145 11.3977 11.625C11.3977 11.9355 11.1424 12.1875 10.8278 12.1875Z" fill="#D05B5B"/>
<path d="M10.8278 15H2.8492C2.53461 15 2.2793 14.748 2.2793 14.4375C2.2793 14.127 2.53461 13.875 2.8492 13.875H10.8278C11.1424 13.875 11.3977 14.127 11.3977 14.4375C11.3977 14.748 11.1424 15 10.8278 15Z" fill="#D05B5B"/>
</g>
<defs>
<clipPath id="clip0">
<rect width="18" height="18" fill="white"/>
</clipPath>
</defs>
</svg>
