<svg width="11" height="11" viewBox="0 0 11 11" fill="none" xmlns="http://www.w3.org/2000/svg">
<path d="M10.199 0C9.75666 0 9.39797 0.35858 9.39797 0.800986V7.68925H3.44625L3.80835 7.44786C4.17643 7.20258 4.27595 6.70523 4.03045 6.33725C3.78506 5.96928 3.28769 5.86977 2.9198 6.11515L0.356694 7.82383C0.133885 7.9724 0 8.22237 0 8.49024C0 8.7581 0.133785 9.00817 0.356694 9.15664L2.9198 10.8653C3.05639 10.9564 3.21075 11 3.36332 11C3.6221 11 3.87619 10.8747 4.03045 10.6432C4.27585 10.2752 4.17643 9.77789 3.80835 9.53261L3.44625 9.29122H10.199C10.6413 9.29122 11 8.93264 11 8.49024V0.801087C11 0.358581 10.6413 0 10.199 0Z" fill="#D05B5B"/>
</svg>
