<svg width="20" height="20" viewBox="0 0 20 20" fill="none" xmlns="http://www.w3.org/2000/svg">
<path d="M10 20C15.5228 20 20 15.5228 20 10C20 4.47715 15.5228 0 10 0C4.47715 0 0 4.47715 0 10C0 15.5228 4.47715 20 10 20Z" fill="#4479AE"/>
<path fill-rule="evenodd" clip-rule="evenodd" d="M9.62262 14.3858H10.4075C10.4075 14.3858 10.6446 14.3598 10.7656 14.2293C10.877 14.1095 10.8735 13.8845 10.8735 13.8845C10.8735 13.8845 10.8581 12.8314 11.3469 12.6763C11.8288 12.5235 12.4475 13.6942 13.1033 14.1443C13.5992 14.4849 13.9761 14.4102 13.9761 14.4102L15.7296 14.3858C15.7296 14.3858 16.6469 14.3293 16.212 13.6081C16.1763 13.5491 15.9587 13.0745 14.9082 12.0995C13.8087 11.0789 13.9559 11.244 15.2804 9.47869C16.087 8.4036 16.4095 7.74725 16.3088 7.46614C16.2127 7.19839 15.6194 7.26916 15.6194 7.26916L13.645 7.28146C13.645 7.28146 13.4987 7.26149 13.3901 7.32638C13.2841 7.39002 13.2158 7.53833 13.2158 7.53833C13.2158 7.53833 12.9033 8.37027 12.4865 9.07778C11.6074 10.5707 11.2558 10.6495 11.1122 10.5568C10.7779 10.3407 10.8613 9.68885 10.8613 9.22574C10.8613 7.77898 11.0808 7.17575 10.4341 7.0196C10.2194 6.96772 10.0615 6.9335 9.51263 6.92797C8.80815 6.92066 8.21187 6.93011 7.87425 7.09554C7.64964 7.20552 7.47637 7.45063 7.5819 7.46471C7.71239 7.48218 8.00794 7.54439 8.16463 7.75777C8.36696 8.033 8.35983 8.65121 8.35983 8.65121C8.35983 8.65121 8.47605 10.3543 8.08834 10.5659C7.8222 10.711 7.45712 10.4147 6.67331 9.06031C6.2717 8.36653 5.96848 7.59965 5.96848 7.59965C5.96848 7.59965 5.91001 7.45633 5.80573 7.37968C5.67916 7.28681 5.50233 7.25722 5.50233 7.25722L3.62615 7.26952C3.62615 7.26952 3.3445 7.27736 3.24111 7.39982C3.14913 7.50874 3.2338 7.73406 3.2338 7.73406C3.2338 7.73406 4.70266 11.1705 6.36582 12.9023C7.89083 14.4901 9.62262 14.3858 9.62262 14.3858Z" fill="white"/>
</svg>
