<svg width="179" height="111" viewBox="0 0 179 111" fill="none" xmlns="http://www.w3.org/2000/svg">
<path d="M127.237 63.4907C125.657 61.7117 131.587 48.8613 131.587 48.8613H131.093L112.906 56.176L113.962 71.8918C113.962 71.8918 126.878 75.1857 127.471 75.7787C128.064 76.3717 120.619 80.3924 117.753 82.9594C114.888 85.5303 115.481 93.7325 115.481 93.7325C117.753 94.9185 120.619 91.6552 120.619 91.6552C120.619 91.6552 120.718 88.6903 124.177 86.2189C127.635 83.7475 141.078 78.6097 137.915 74.5545C134.747 70.5069 128.817 65.2696 127.237 63.4907Z" fill="white"/>
<path d="M130.558 65.6866C129.364 64.5313 128.335 63.5366 127.834 62.9742C127.237 62.0446 129.284 55.7361 132.302 49.1942L130.979 48.5821L130.795 48.1268L112.076 55.6557L113.209 72.5154L113.763 72.657C118.698 73.9156 124.158 75.4 126.208 76.0963C125.447 76.6778 124.085 77.5653 122.93 78.3151C120.89 79.6426 118.576 81.1499 117.218 82.3703C114.1 85.1669 114.658 93.438 114.685 93.7899L114.716 94.2299L115.106 94.4327C115.58 94.6775 116.063 94.7808 116.541 94.7808C118.886 94.7808 121.097 92.3017 121.208 92.1755L121.392 91.9613L121.407 91.6858C121.411 91.5787 121.568 89.0499 124.636 86.8617C125.466 86.2687 126.939 85.4959 128.645 84.5969C133.255 82.1714 138.477 79.4246 139.12 76.4559C139.3 75.6142 139.101 74.7879 138.542 74.0686C136.392 71.3295 133.022 68.0662 130.558 65.6866ZM137.567 76.1268C137.085 78.3725 131.56 81.28 127.903 83.2005C126.147 84.1263 124.628 84.922 123.71 85.5762C120.615 87.7875 119.98 90.4004 119.854 91.3071C119.322 91.8465 117.608 93.4456 116.231 93.1702C116.12 90.6835 116.304 85.3123 118.274 83.5486C119.544 82.4086 121.801 80.9395 123.794 79.6426C127.364 77.3166 128.205 76.6969 128.285 75.9585C128.316 75.6831 128.22 75.4114 128.025 75.2202C127.539 74.7343 123.06 73.4068 114.708 71.2683L113.733 56.6963L130.175 50.0818C129.621 51.3557 128.813 53.2647 128.079 55.2311C125.669 61.6773 126.002 63.2879 126.648 64.0148C127.195 64.6307 128.198 65.5986 129.464 66.8228C131.893 69.1718 135.218 72.3892 137.291 75.0442C137.559 75.3962 137.651 75.7405 137.567 76.1268Z" fill="#D05B5B"/>
<path d="M118.009 90.4042C117.615 90.6529 115.836 90.7485 115.836 90.7485V91.4409C115.836 91.4409 117.665 91.3912 118.158 90.8977C118.652 90.4042 118.602 88.3766 118.602 88.3766C118.602 88.3766 118.407 90.1593 118.009 90.4042Z" fill="#D05B5B"/>
<path d="M118.01 92.9253L119.196 92.5313L119.1 91.3453L118.01 92.9253Z" fill="#D05B5B"/>
<path d="M43.7835 26.4238C38.7758 26.8179 37.2608 26.2938 27.3102 25.3029C17.3597 24.3159 14.9228 21.944 10.045 16.8673C5.17114 11.7983 5.43512 10.7424 5.17115 8.7684C4.90718 6.79436 6.22703 3.03756 7.08015 2.24565C7.9371 1.45374 7.67313 0.929634 5.43129 0.795736C3.18945 0.665663 1.87343 3.43161 1.14656 6.19757C0.423505 8.96352 0.817549 12.0623 1.80457 13.9713C2.79159 15.8803 8.65633 25.5019 14.3221 28.7958C19.9879 32.0896 31.7824 33.0116 34.6173 33.5396C37.4521 34.0675 38.967 35.5825 39.6901 36.8985C40.4131 38.2145 53.3286 26.2899 53.3286 26.2899C50.0462 26.0948 48.7913 26.0298 43.7835 26.4238Z" fill="white"/>
<path d="M49.4311 25.345C47.9965 25.345 46.3438 25.4292 43.7232 25.6358C42.6023 25.7237 41.665 25.7658 40.7737 25.7658C38.792 25.7658 36.9365 25.5554 33.8683 25.2111C32.1851 25.0198 30.0924 24.7865 27.3915 24.5187C17.5557 23.5431 15.2374 21.1291 10.6198 16.3241C6.33123 11.8595 6.19733 10.7233 6.01753 9.15098C5.9984 8.99412 5.97927 8.83346 5.96014 8.66513C5.72295 6.87855 6.99308 3.40867 7.62431 2.82717C8.24024 2.25715 8.4583 1.69478 8.26319 1.15536C7.94566 0.271629 6.74058 0.084172 5.48577 0.00765879C5.4169 0.00383313 5.35186 0 5.28682 0C3.77186 0 1.69071 1.04058 0.393813 5.99863C-0.329237 8.75694 -0.0384933 12.1082 1.11686 14.3386C2.05414 16.1481 8.04514 26.0566 13.9405 29.4844C18.6231 32.2082 27.2729 33.3445 31.9173 33.9566C33.0535 34.1058 33.9487 34.2244 34.4881 34.3238C37.2923 34.8441 38.528 36.405 39.0139 37.2887C39.1898 37.6101 39.5265 37.8014 39.9167 37.8014C41.8487 37.8014 50.3263 30.1653 53.8804 26.8829L55.2423 25.6243L53.3907 25.5133C51.7457 25.4062 50.6783 25.345 49.4311 25.345ZM40.1539 36.1257C39.4079 34.978 37.8394 33.3368 34.7712 32.7668C34.1897 32.6597 33.2754 32.5373 32.1162 32.3881C27.579 31.7913 19.1396 30.6818 14.7286 28.1186C9.23492 24.9242 3.36634 15.2606 2.51322 13.6155C1.6907 12.0279 1.18954 9.18158 1.91642 6.40415C2.38697 4.60609 3.45051 1.58766 5.27918 1.58766C5.31361 1.58766 5.35186 1.58766 5.3863 1.59149C5.91424 1.62209 6.26237 1.67564 6.48809 1.72155C5.4016 2.81569 4.10088 6.75995 4.38397 8.87937C4.4031 9.03622 4.42223 9.18925 4.44136 9.33845C4.67472 11.3469 5.04199 12.8121 9.47593 17.4259C14.5641 22.7244 17.2382 25.1078 27.2308 26.0987C29.9203 26.3665 32.0091 26.5998 33.6847 26.7911C38.2219 27.3038 40.108 27.5142 43.8418 27.2234C46.4203 27.0207 48.0386 26.9365 49.4235 26.9365C50.093 26.9365 50.7166 26.9556 51.4128 26.9862C46.6843 31.2786 41.6727 35.4486 40.1539 36.1257Z" fill="#D05B5B"/>
<path d="M59.2853 30.8386L59.4039 31.3207C59.4039 31.3207 51.9783 33.7347 49.0325 44.4809C46.0868 55.2272 44.3193 62.955 43.0224 65.0056C41.7255 67.06 32.1805 75.1474 31.2394 76.5974C30.2983 78.0473 25.8184 98.4534 25.4665 100.022C25.1145 101.59 28.0603 102.918 29.3572 103.886C30.6541 104.85 34.4262 104.008 34.4262 104.008C34.4262 104.008 37.4905 104.008 37.4905 103.404C37.4905 102.799 37.3719 100.263 36.3122 99.7809C35.2525 99.2988 32.0696 97.7265 32.0696 97.7265C32.0696 97.7265 36.1936 81.7888 37.1386 81.0657C38.0797 80.3427 50.8077 75.8743 54.5798 72.9745C58.3519 70.0784 68.6046 58.1232 69.9015 53.5363C71.187 48.9531 61.7605 30.8386 59.2853 30.8386Z" fill="white"/>
<path d="M59.286 30.0505V30.961L59.1598 30.5708C58.8384 30.6741 51.2942 33.245 48.2719 44.2743C47.4762 47.1704 46.7646 49.8713 46.1334 52.2509C44.4539 58.6015 43.2374 63.1884 42.3575 64.5886C41.7033 65.6254 38.3673 68.7012 35.6855 71.1688C32.8163 73.8123 31.0335 75.4688 30.5783 76.1689C30.3449 76.5285 29.6333 77.6188 24.8589 99.119L24.6982 99.8497C24.3003 101.61 26.2782 102.853 27.8659 103.851C28.2523 104.096 28.6195 104.326 28.8873 104.525C29.5262 104.999 30.5209 105.148 31.5117 105.148C32.778 105.148 34.0328 104.907 34.5149 104.804C37.8317 104.792 38.2831 104.092 38.2831 103.408C38.2831 102.566 38.1645 99.7579 36.6419 99.0655C35.8768 98.7173 33.964 97.7801 32.9999 97.3057C34.8477 90.2167 37.0321 82.6572 37.6672 81.6664C38.0842 81.4254 39.8402 80.7138 41.5426 80.0252C45.8924 78.2653 52.4649 75.6027 55.0663 73.6057C58.869 70.6829 69.3131 58.5441 70.6674 53.7543C71.8112 49.7068 65.7284 37.0668 62.1399 32.323C60.602 30.3069 59.8063 30.0505 59.286 30.0505ZM69.1333 53.3259C67.8784 57.7751 57.6754 69.6002 54.0908 72.3547C51.6615 74.2216 45.2076 76.8345 40.9381 78.5637C38.0574 79.7306 37.0168 80.1629 36.6496 80.446C35.6932 81.1805 33.2103 90.1479 31.2975 97.539L31.1368 98.1626L31.7145 98.4457C31.8445 98.5108 34.9204 100.026 35.9801 100.508C36.3129 100.661 36.6305 101.828 36.6878 103.029C36.2326 103.136 35.2991 103.22 34.423 103.224L34.2509 103.243C32.8737 103.553 30.5132 103.771 29.8284 103.258C29.5109 103.021 29.1207 102.776 28.7037 102.516C27.7243 101.9 26.0869 100.871 26.2361 100.202L26.4006 99.4672C30.6242 80.446 31.6571 77.4428 31.9019 77.0335C32.273 76.4635 34.6564 74.2675 36.7567 72.3318C39.7904 69.539 42.9275 66.6468 43.6926 65.4341C44.7064 63.8311 45.8809 59.3857 47.6637 52.6602C48.2949 50.2806 49.0065 47.5874 49.7984 44.6952C52.5835 34.5304 59.5844 32.1011 59.6533 32.0782L59.5729 31.8371C60.1544 32.3192 61.3863 33.7194 63.2953 37.0515C66.6581 42.9086 69.8448 50.7971 69.1333 53.3259Z" fill="#D05B5B"/>
<path d="M163.442 24.9089C163.852 24.9892 164.578 25.0466 165.451 25.0887C160.791 24.2547 153.561 23.0611 153.561 23.0611C153.561 23.0611 162.122 24.6449 163.442 24.9089Z" fill="white"/>
<path d="M161.893 8.91377C161.893 8.91377 160.409 6.06367 158.565 4.48367C156.721 2.90367 147.099 3.03373 144.991 3.03373C142.883 3.03373 140.642 6.98564 140.642 6.98564L115.737 23.0611C115.737 23.0611 97.5494 24.247 94.9135 24.247C92.2776 24.247 73.1684 28.9909 73.1684 28.9909C73.1684 28.9909 67.7666 26.749 55.5092 25.9609C43.2517 25.169 39.5638 38.3484 39.5638 38.3484C39.5638 38.3484 28.6262 69.9752 51.2933 60.2235C67.2845 53.345 77.8319 59.7798 82.656 64.164C85.0433 66.3331 88.1153 67.5918 91.3403 67.718C99.1867 68.0241 112.737 68.3951 115.603 67.4693C119.688 66.1533 126.674 59.5617 126.674 59.5617L151.912 26.9441C154.154 27.2081 161.071 28.658 162.127 28.658C163.182 28.658 168.978 25.7582 168.978 25.7582C168.397 25.6204 167.081 25.3756 165.451 25.081C164.579 25.0389 163.856 24.9816 163.443 24.9012C162.127 24.6373 153.561 23.0572 153.561 23.0572C153.561 23.0572 160.791 24.2509 165.451 25.0848C167.788 25.1958 171.193 25.2034 172.536 25.2991C174.38 25.4292 177.544 18.9753 177.544 18.9753L163.312 12.5176L161.893 8.91377Z" fill="white"/>
<path d="M177.869 18.2599L163.928 11.9361L162.627 8.62685C162.616 8.60007 162.604 8.57714 162.593 8.55036C162.528 8.42794 161.017 5.54721 159.077 3.88304C158.255 3.17912 156.036 2.24182 146.307 2.24182L144.991 2.24565C142.696 2.24565 140.576 5.54719 140.056 6.4271L115.48 22.2921C113.468 22.4222 97.3463 23.4628 94.9132 23.4628C92.3461 23.4628 75.5515 27.5945 73.2217 28.1683C72.0127 27.7207 66.5076 25.8806 55.5624 25.1767C55.1951 25.1537 54.824 25.1422 54.4606 25.1422C42.8459 25.1422 39.0088 37.4456 38.8098 38.1151C38.5153 38.972 33.5113 53.8079 37.9873 60.0897C39.311 61.9451 41.2965 62.8862 43.898 62.8862C46.0327 62.8862 48.6226 62.2359 51.599 60.9543C56.1554 58.9955 60.597 58.0008 64.8052 58.0008C72.973 58.0008 78.7306 61.6735 82.1201 64.7531C84.6413 67.0447 87.9045 68.3799 91.3056 68.5138C95.2843 68.6668 101.065 68.8542 106.023 68.8542C111.325 68.8542 114.539 68.6515 115.84 68.2307C120.048 66.8726 126.919 60.4225 127.209 60.147C127.24 60.1203 127.267 60.0896 127.294 60.0552L152.252 27.8011C153.362 27.9617 155.152 28.2907 156.897 28.6121C159.743 29.1362 161.514 29.4614 162.119 29.4614C163.239 29.4614 167.532 27.3764 169.326 26.4774C169.521 26.3779 169.663 26.2058 169.728 26.0068C170.86 26.0298 171.889 26.0566 172.475 26.0987C172.513 26.1025 172.551 26.0986 172.589 26.1025C174.705 26.1025 177.253 21.3663 178.251 19.3311C178.347 19.1398 178.358 18.9179 178.286 18.7151C178.213 18.5124 178.064 18.3479 177.869 18.2599ZM172.589 24.5187C171.885 24.4689 170.696 24.4421 169.315 24.4154C168.075 24.3886 166.667 24.358 165.539 24.3082C160.925 23.4857 153.759 22.2998 153.687 22.2883C153.258 22.2194 152.853 22.5064 152.78 22.931C152.707 23.3557 152.991 23.765 153.415 23.8453C153.499 23.8606 161.988 25.4292 163.289 25.6893C163.702 25.7735 164.364 25.8347 165.363 25.8844C165.78 25.9571 166.158 26.026 166.507 26.091C164.471 27.0474 162.57 27.8546 162.126 27.8814C161.637 27.8814 159.173 27.4261 157.191 27.0589C155.171 26.684 153.079 26.2976 152.007 26.1714C151.732 26.1407 151.46 26.2517 151.288 26.4736L126.092 59.0376C125.495 59.5923 119.072 65.5297 115.365 66.7272C114.592 66.9758 112.343 67.2743 106.034 67.2743C101.099 67.2743 95.3416 67.0906 91.3783 66.9376C88.3483 66.819 85.4408 65.6292 83.1952 63.5901C79.599 60.323 73.4933 56.4247 64.8167 56.4247C60.3942 56.4247 55.7422 57.4614 50.9869 59.5081C48.2057 60.7056 45.8261 61.31 43.9094 61.31C41.8206 61.31 40.3095 60.6138 39.2842 59.1791C35.2405 53.5057 40.2674 38.7654 40.3171 38.62C40.321 38.6047 40.3286 38.5894 40.3324 38.5741C40.4702 38.0921 43.7985 26.7299 54.4683 26.7299C54.7973 26.7299 55.1301 26.7414 55.4668 26.7643C67.4067 27.5333 72.82 29.7139 72.8735 29.7368C73.0304 29.8019 73.2025 29.8134 73.367 29.7751C78.6541 28.4629 92.8358 25.0542 94.9208 25.0542C97.5528 25.0542 115.051 23.9142 115.794 23.8683C115.927 23.8606 116.058 23.8147 116.172 23.742L141.077 7.6628C141.185 7.59394 141.273 7.49828 141.338 7.38734C141.996 6.22816 143.752 3.83331 144.999 3.83331L146.315 3.82948C155.584 3.82948 157.612 4.7132 158.056 5.09194C159.655 6.46153 161.005 8.93291 161.177 9.25426L162.578 12.8198C162.654 13.0111 162.8 13.1641 162.987 13.2521L176.469 19.3693C175.011 22.1391 173.244 24.5187 172.589 24.5187Z" fill="#D05B5B"/>
<path d="M46.8177 28.9947L46.9478 29.5226C46.9478 29.5226 38.6461 32.1585 35.3522 43.888C32.0583 55.6175 30.0805 64.0492 28.6305 66.2911C27.1806 68.5329 16.507 77.3625 15.4511 78.9425C14.3952 80.5225 9.38746 102.796 8.99341 104.509C8.59937 106.223 11.8933 107.673 13.3432 108.725C14.7931 109.781 19.009 108.855 19.009 108.855C19.009 108.855 22.4368 108.855 22.4368 108.197C22.4368 107.539 22.3067 104.77 21.1208 104.245C19.9348 103.718 16.3769 102.004 16.3769 102.004C16.3769 102.004 20.9907 84.6083 22.0427 83.8164C23.0986 83.0245 37.3301 78.1506 41.546 74.9868C45.7618 71.823 57.2273 58.7775 58.6773 53.7697C60.1272 48.7619 49.5837 28.9947 46.8177 28.9947Z" fill="white"/>
<path d="M46.8186 28.2066L46.8071 29.0712L46.7115 28.769C46.3557 28.8799 37.9622 31.6727 34.5918 43.6738C33.7042 46.8338 32.9047 49.7833 32.2008 52.381C30.3185 59.3169 28.9604 64.3285 27.9696 65.8588C27.2312 66.9988 23.4974 70.3578 20.4981 73.0548C17.2922 75.9394 15.3028 77.7413 14.7978 78.5026C14.5377 78.8928 13.7496 80.0749 8.40896 103.526L8.22534 104.326C7.79304 106.208 9.97749 107.547 11.7335 108.622C12.1696 108.89 12.5789 109.142 12.8812 109.36C13.5736 109.865 14.6601 110.022 15.7466 110.022C17.1621 110.022 18.5737 109.754 19.0979 109.643C23.2296 109.632 23.2296 108.66 23.2296 108.194C23.2296 107.283 23.0995 104.257 21.443 103.519C20.5707 103.132 18.371 102.08 17.3113 101.571C19.1055 94.8496 21.7988 85.5227 22.5601 84.4209C22.9962 84.1645 24.9894 83.3765 26.9213 82.6113C31.7799 80.6909 39.1252 77.7872 42.0212 75.618C46.2677 72.4313 57.9283 59.2098 59.4394 53.9877C60.7287 49.5385 54.0797 36.187 50.1278 30.9305C48.3106 28.5165 47.4039 28.2066 46.8186 28.2066ZM57.9168 53.5516C56.509 58.4178 45.0818 71.3448 41.0686 74.3556C38.3409 76.3985 31.1181 79.2562 26.336 81.1461C23.329 82.3359 21.9824 82.8715 21.5654 83.1852C20.5134 83.9733 17.7436 93.744 15.6089 101.801L15.4405 102.432L16.0297 102.715C16.1751 102.784 19.6105 104.441 20.7965 104.965C21.2517 105.167 21.5807 106.564 21.6381 107.834C21.1446 107.964 20.0466 108.063 19.0099 108.063L18.8415 108.083C17.2348 108.435 14.6104 108.664 13.807 108.083C13.455 107.826 13.0189 107.558 12.556 107.275C11.4465 106.594 9.58727 105.454 9.76325 104.682L9.94689 103.874C14.6831 83.0628 15.8346 79.8071 16.1062 79.3748C16.527 78.7436 19.1935 76.3449 21.5501 74.2255C24.9358 71.1803 28.4401 68.0317 29.2894 66.7119C30.4142 64.9712 31.7302 60.1241 33.7195 52.7865C34.4235 50.1889 35.223 47.2469 36.1067 44.0908C39.2361 32.9504 47.1055 30.2916 47.182 30.2648L47.0749 29.9282C47.6296 30.3298 48.85 31.5962 50.7896 34.7523C54.8334 41.3325 58.7547 50.6632 57.9168 53.5516Z" fill="#D05B5B"/>
<path d="M50.9004 27.1507C42.4648 28.9947 38.3828 41.78 38.3828 41.78C38.3828 41.78 41.9407 49.2898 41.9407 50.0817C41.9407 50.8736 48.0043 68.5329 52.7482 60.2274C57.492 51.9257 61.3138 53.7696 61.3138 53.7696L67.3775 45.598C67.3737 45.598 59.336 25.3067 50.9004 27.1507Z" fill="white"/>
<path d="M102.821 55.6137C102.821 55.6137 99.3934 74.325 99.5273 75.7749C99.6573 77.2248 104.665 101.472 104.665 102.658C104.665 103.844 107.959 109.38 109.145 109.38C110.331 109.38 120.457 110.049 120.216 108.194C119.822 105.164 119.688 104.372 115.603 104.108C112.542 103.909 112.439 101.208 112.439 101.208L111.517 77.6189C111.517 77.6189 123.376 60.7515 125.09 55.3497C126.808 49.9479 111.127 46.9179 102.821 55.6137Z" fill="white"/>
<path d="M116.329 49.3549C110.851 49.3549 105.717 51.436 102.251 55.0704L102.086 55.2426L102.044 55.4759C101.47 58.6168 98.605 74.3709 98.7389 75.8514C98.8001 76.5094 99.6303 80.71 100.981 87.512C102.259 93.9391 103.846 101.939 103.877 102.662C103.877 103.832 105.598 106.579 105.797 106.889C107.878 110.171 108.804 110.171 109.149 110.171C109.302 110.171 109.615 110.183 110.04 110.198C110.985 110.233 112.416 110.29 113.938 110.29C118.973 110.29 120.174 109.697 120.683 109.116C120.939 108.825 121.05 108.461 121.004 108.094C120.572 104.777 120.189 103.614 115.66 103.323C113.414 103.178 113.246 101.38 113.234 101.181L112.324 77.8599C113.781 75.7749 124.206 60.7745 125.851 55.5907C126.192 54.5157 126.008 53.4483 125.323 52.511C123.893 50.5638 120.45 49.3549 116.329 49.3549ZM124.34 55.1125C122.684 60.3383 110.992 76.9991 110.874 77.1674L110.721 77.3855L111.654 101.242C111.7 102.424 112.572 104.708 115.557 104.9C118.954 105.118 119.057 105.412 119.413 108.128C119.13 108.293 118.016 108.706 113.938 108.706C112.446 108.706 111.035 108.653 110.101 108.618C109.699 108.603 109.393 108.591 109.214 108.588C108.269 108.167 105.507 103.61 105.461 102.658C105.461 101.977 104.355 96.3646 102.534 87.1983C101.47 81.8462 100.372 76.3105 100.315 75.7022C100.242 74.6463 102.247 63.154 103.555 55.9886C106.723 52.7712 111.364 50.931 116.325 50.931C119.841 50.931 122.94 51.9372 124.038 53.4368C124.428 53.9724 124.528 54.5195 124.34 55.1125Z" fill="#D05B5B"/>
<path d="M177.893 18.4052L175.322 17.4182C175.046 17.3111 174.74 17.3685 174.518 17.5598L172.246 19.5376C171.959 19.7863 171.89 20.2109 172.085 20.5361L174.113 23.9448C174.254 24.182 174.507 24.3274 174.778 24.3312C174.782 24.3312 174.786 24.3312 174.79 24.3312C175.058 24.3312 175.31 24.1935 175.456 23.9678L178.271 19.5682C178.401 19.3693 178.432 19.1206 178.355 18.8949C178.287 18.673 178.114 18.4932 177.893 18.4052ZM174.817 22.0358L173.784 20.2951L175.199 19.0633L176.42 19.5338L174.817 22.0358Z" fill="#D05B5B"/>
<path d="M140.347 4.81272C138.419 5.65436 137.482 6.79058 133.082 8.37058C128.683 9.95058 129.375 14.2009 129.081 16.722C128.786 19.2431 133.182 22.208 134.716 24.7291C136.246 27.2502 136.743 30.2648 139.41 29.8172C142.08 29.3735 145.141 20.0312 144.946 18.7458C144.747 17.4603 143.316 10.8381 143.316 10.8381L147.417 5.9451C147.413 5.94892 142.275 3.9749 140.347 4.81272Z" fill="white"/>
<path d="M147.695 5.21056C147.546 5.15318 144.034 3.81421 141.609 3.81421C140.97 3.81421 140.449 3.90219 140.029 4.08965C139.302 4.40718 138.705 4.76297 138.07 5.14553C136.903 5.8418 135.583 6.63371 132.813 7.63221C128.666 9.12422 128.494 12.8275 128.383 15.2797C128.36 15.7732 128.341 16.2361 128.292 16.6378C128.058 18.6119 129.906 20.5362 131.696 22.3993C132.637 23.3786 133.525 24.3044 134.038 25.1461C134.401 25.7429 134.707 26.3779 135.002 26.9939C135.87 28.7958 136.769 30.6589 138.9 30.6589C139.103 30.6589 139.317 30.6397 139.535 30.6053C142.814 30.0582 145.97 20.2416 145.721 18.6348C145.549 17.5062 144.474 12.4985 144.164 11.06L148.017 6.46539C148.181 6.27028 148.238 6.0063 148.177 5.75763C148.116 5.50513 147.936 5.30238 147.695 5.21056ZM142.707 10.3331C142.55 10.5206 142.489 10.7693 142.538 11.0103C142.554 11.0753 143.969 17.6248 144.16 18.8643C144.275 20.0924 141.287 28.704 139.279 29.0406C139.145 29.0636 139.019 29.075 138.904 29.075C137.817 29.075 137.282 28.0727 136.429 26.3053C136.115 25.6549 135.79 24.9816 135.388 24.3197C134.787 23.3289 133.839 22.3419 132.836 21.3013C131.375 19.7787 129.718 18.0533 129.864 16.8176C129.917 16.3624 129.94 15.8689 129.963 15.3486C130.074 12.9614 130.197 10.2528 133.349 9.11657C136.264 8.06834 137.718 7.1999 138.885 6.49981C139.497 6.13254 140.029 5.81501 140.664 5.53956C140.813 5.47453 141.096 5.39802 141.612 5.39802C142.997 5.39802 144.903 5.94127 146.073 6.32001L142.707 10.3331Z" fill="#D05B5B"/>
<path d="M163.765 21.8215C163.007 21.8215 163.168 22.9884 163.914 22.9884C164.671 22.9884 164.511 21.8215 163.765 21.8215Z" fill="#D05B5B"/>
<path d="M164.981 20.1421C164.224 20.1421 164.385 21.3089 165.131 21.3089C165.892 21.3089 165.731 20.1421 164.981 20.1421Z" fill="#D05B5B"/>
<path d="M167.587 19.5836C166.829 19.5836 166.99 20.7504 167.736 20.7504C168.494 20.7504 168.333 19.5836 167.587 19.5836Z" fill="#D05B5B"/>
<path d="M165.972 21.8215C165.214 21.8215 165.375 22.9884 166.121 22.9884C166.878 22.9884 166.718 21.8215 165.972 21.8215Z" fill="#D05B5B"/>
<path d="M169.101 21.0985C168.343 21.0985 168.504 22.2653 169.25 22.2653C170.007 22.2653 169.847 21.0985 169.101 21.0985Z" fill="#D05B5B"/>
<path d="M168.11 22.6785C167.353 22.6785 167.514 23.8453 168.26 23.8453C169.021 23.8453 168.86 22.6785 168.11 22.6785Z" fill="#D05B5B"/>
<path d="M143.378 13.3133L143.577 10.1189C142.425 8.76844 142.127 6.82501 142.127 6.82501C141.698 9.656 143.378 13.3133 143.378 13.3133Z" fill="#D05B5B"/>
<path d="M143.3 9.00941L145.389 6.51509C144.199 6.15548 142.695 5.78821 141.609 5.78821C141.138 5.78821 140.913 5.85706 140.817 5.89914C140.205 6.16694 139.685 6.47682 139.084 6.83644C137.902 7.54418 136.433 8.42408 133.479 9.48379C130.786 10.4517 130.484 12.529 130.354 15.36C130.331 15.888 130.308 16.3891 130.251 16.8597C130.128 17.9079 131.785 19.6333 133.116 21.022C134.088 22.0358 135.094 23.084 135.717 24.1093C136.131 24.7864 136.456 25.4674 136.773 26.1254C137.626 27.8967 138.086 28.6733 138.889 28.6733C138.985 28.6733 139.088 28.6657 139.199 28.6465C139.501 28.5968 140.61 27.7169 142.072 24.3044C143.177 21.7297 143.755 19.4076 143.751 18.8988C143.545 17.5942 142.152 11.1556 142.137 11.0906L142.014 10.5244L141.995 10.3484C141.747 9.02471 141.479 7.65896 142.079 6.41179C142.091 6.41179 142.47 7.56713 143.3 9.00941Z" fill="#D05B5B"/>
<path d="M123.316 20.035L116.066 24.7138L94.719 25.3718C94.719 25.3718 83.5174 28.4667 82.1325 28.8646C80.7477 29.2586 78.1806 32.6214 79.4316 36.6384C80.6826 40.6591 85.4953 41.1182 85.6904 43.953C85.8893 46.7878 84.1754 49.3549 85.6904 51.4628C87.2054 53.5707 88.3913 53.5057 90.8283 56.2066C93.2652 58.9075 95.706 61.4133 98.537 59.7645C101.372 58.1156 101.766 50.1429 103.48 49.0909C105.194 48.035 112.638 50.0779 113.625 45.0051C114.612 39.9322 112.504 33.4745 113.162 31.6306C113.828 29.7866 127.731 23.0649 123.316 20.035Z" fill="#D05B5B"/>
<path d="M120.48 28.8647C119.868 29.1439 114.814 31.4355 114.88 33.2144C114.945 34.9934 115.801 38.3523 116.131 38.3523C116.46 38.3523 125.488 26.5578 120.48 28.8647Z" fill="#D05B5B"/>
<path d="M53.6699 27.5447C53.6699 27.5447 44.9053 27.0168 42.2694 36.0454C39.6335 45.0739 40.6894 51.2677 44.1134 50.8048C47.5412 50.3419 55.2499 49.0258 56.4358 45.9959C57.6218 42.966 63.4865 33.9374 65.9885 33.2144C68.4905 32.4913 68.0314 28.9985 68.0314 28.9985C68.0314 28.9985 58.5437 27.1507 53.6699 27.5447Z" fill="#D05B5B"/>
<path d="M117.714 47.4458L105.128 50.6096L102.098 53.7084L103.219 60.6941L121.67 60.036C121.67 60.036 125.293 56.2142 127.007 51.9333C128.717 47.6409 117.714 47.4458 117.714 47.4458Z" fill="white"/>
<path d="M16.2773 106.086C16.2773 106.086 17.6928 106.843 17.6278 108.756L18.3509 108.427C18.3509 108.427 18.4159 106.086 16.2773 106.086Z" fill="#D05B5B"/>
<path d="M18.4844 104.77C20.7568 104.869 21.5143 106.12 21.5143 106.12C21.4493 105.198 20.8869 104.571 20.8869 104.571C19.4714 103.848 18.4844 104.77 18.4844 104.77Z" fill="#D05B5B"/>
<path d="M32.3867 101.315C32.3867 101.315 33.6262 101.977 33.5688 103.649L34.2039 103.362C34.2001 103.362 34.2575 101.315 32.3867 101.315Z" fill="#D05B5B"/>
<path d="M34.3145 100.163C36.3038 100.251 36.9656 101.346 36.9656 101.346C36.9082 100.538 36.4186 99.9913 36.4186 99.9913C35.1791 99.3562 34.3145 100.163 34.3145 100.163Z" fill="#D05B5B"/>
<path d="M113.992 106.086C113.992 106.086 114.914 106.185 115.308 106.415C115.702 106.644 116.131 109.051 116.131 109.051L116.923 108.92C116.923 108.92 116.594 107.834 116.23 106.679C115.871 105.527 113.992 106.086 113.992 106.086Z" fill="#D05B5B"/>
<path d="M117.251 104.705C116.329 104.77 116.164 105.332 116.164 105.332C118.502 104.938 119.259 106.223 119.259 106.223C118.865 105.064 118.173 104.639 117.251 104.705Z" fill="#D05B5B"/>
<path d="M150.762 11.2092C150.762 11.2092 152.713 14.1052 155.379 13.122C156.806 12.5979 156.845 11.5841 156.845 11.5841C156.845 11.5841 155.004 7.79288 150.762 11.2092Z" fill="#D05B5B"/>
<path d="M155.042 10.3446C154.709 10.3446 154.441 10.6124 154.441 10.9452C154.441 11.2781 154.709 11.5459 155.042 11.5459C155.375 11.5459 155.643 11.2781 155.643 10.9452C155.643 10.6124 155.371 10.3446 155.042 10.3446Z" fill="white"/>
<path d="M155.248 11.9208C155.133 11.9208 155.041 12.0126 155.041 12.1274C155.041 12.2421 155.133 12.3339 155.248 12.3339C155.362 12.3339 155.454 12.2421 155.454 12.1274C155.454 12.0126 155.359 11.9208 155.248 11.9208Z" fill="white"/>
</svg>
