<svg width="140" height="26" viewBox="0 0 140 26" fill="none" xmlns="http://www.w3.org/2000/svg">
<path d="M9.80714 11.7748C6.85516 9.6101 3.83758 6.85499 3.83758 5.73982C3.83758 4.95265 4.46077 4.75585 5.41196 4.75585C8.79034 4.75585 11.3159 7.05178 13.5135 8.82293L15.3503 3.80468C14.3663 2.91911 12.3983 1.90234 8.82314 1.90234C3.44398 1.90234 0.787195 4.91985 0.787195 7.83896C0.787195 10.6597 3.11598 12.4964 6.39596 15.0547C9.77434 17.7771 13.0871 20.5322 13.0871 22.0081C13.0871 22.6641 12.5295 23.0577 11.2175 23.0577C7.47835 23.0577 5.14957 20.8602 3.73918 18.597L0 22.5985C1.93519 24.7632 4.39517 25.616 8.26555 25.616C13.3495 25.616 16.7607 22.3361 16.7607 19.4498C16.7607 16.3339 13.0543 14.1692 9.80714 11.7748Z" fill="white"/>
<path d="M31.0414 20.9586C31.0414 18.3346 31.0414 16.1699 31.0414 13.546C31.0414 12.9228 30.9758 10.4957 26.4494 8.72453C24.0223 7.77336 21.2999 8.03575 19.4303 9.87249L21.0375 13.874C21.9559 11.9716 23.8583 10.3645 25.8262 10.3645C26.843 10.3645 27.0726 13.0212 27.007 13.7428C24.8423 14.7923 21.1687 16.6291 18.3151 18.0722C17.5935 18.4658 17.2983 19.1218 17.2983 19.8106C17.2983 22.1393 20.4471 25.4848 22.4479 25.4848C24.2519 25.4848 26.5478 23.1889 27.2038 22.5329V23.0905C27.2038 24.96 28.647 25.288 28.647 25.288L32.2222 23.7793C31.0742 22.8609 31.0414 21.2537 31.0414 20.9586ZM24.3503 21.9097C23.8583 21.9097 23.3991 21.8769 22.9727 21.7785C22.1855 21.6145 21.5623 20.6306 21.5623 19.6138C21.5623 18.8594 21.9231 18.0722 22.8087 17.5147C25.4654 15.8747 26.5478 15.2187 27.0398 14.9235L27.2038 21.4833C26.5806 21.7457 25.4326 21.9097 24.3503 21.9097Z" fill="white"/>
<path d="M41.3293 13.9724C43.5925 11.8076 44.806 11.414 47.8892 8.95412H41.9525C42.3133 9.47891 42.8381 10.8565 42.2805 11.4468C40.3453 13.2836 38.6069 14.5299 37.9181 15.0219V0L32.9653 2.29593C34.1789 3.4111 34.1789 5.21504 34.1789 5.21504V21.5161C34.1789 21.9425 34.1133 23.8777 32.9653 25.288H39.2629C38.0493 23.3529 38.0165 21.5817 38.0165 21.4177C38.0165 19.9746 38.0165 18.4986 37.9837 17.0555C39.0989 19.1874 41.9197 24.1729 43.1989 24.96C43.986 25.4192 45.1012 25.5504 46.1508 25.5504C47.594 25.5504 48.8732 25.288 48.8732 25.288C45.0356 22.7297 41.3293 13.9724 41.3293 13.9724Z" fill="white"/>
<path d="M61.6951 20.9586C61.6951 18.3346 61.6951 16.1699 61.6951 13.546C61.6951 12.9228 61.6295 10.4957 57.1031 8.72453C54.676 7.77336 51.9536 8.03575 50.084 9.87249L51.6912 13.874C52.6096 11.9716 54.512 10.3645 56.4799 10.3645C57.4967 10.3645 57.7263 13.0212 57.6607 13.7428C55.496 14.7923 51.8224 16.6291 48.9688 18.0722C48.2472 18.4658 47.952 19.1218 47.952 19.8106C47.952 22.1393 51.1008 25.4848 53.1016 25.4848C54.9056 25.4848 57.2015 23.1889 57.8575 22.5329V23.0905C57.8575 24.96 59.3007 25.288 59.3007 25.288L62.8759 23.7793C61.7279 22.8609 61.6951 21.2537 61.6951 20.9586ZM55.004 21.9097C54.512 21.9097 54.0528 21.8769 53.6264 21.7785C52.8392 21.6145 52.216 20.6306 52.216 19.6138C52.216 18.8594 52.5768 18.0722 53.4624 17.5147C56.1192 15.8747 57.2015 15.2187 57.6935 14.9235L57.8575 21.4833C57.2343 21.7457 56.0864 21.9097 55.004 21.9097Z" fill="white"/>
<path d="M73.9182 8.29814C71.3598 8.29814 69.359 10.3973 68.6702 11.1845V8.23254L63.6518 10.5285C64.7998 11.4796 64.8654 13.4476 64.8654 13.4476V21.4833C64.8654 21.9097 64.7998 23.8449 63.6518 25.2552H69.9494C68.7358 23.3201 68.703 21.5489 68.703 21.3849L68.6702 12.2668C69.4574 11.9388 70.1462 11.7748 70.7038 11.7748C72.7374 11.7748 73.5246 13.5132 73.5246 13.5132L76.7389 9.51171C76.7389 9.51171 76.0501 8.29814 73.9182 8.29814Z" fill="white"/>
<path d="M82.3544 21.5817C82.3544 21.0897 82.3544 10.5941 82.3544 10.5941H85.5687L86.1919 8.95412H82.2888V5.08384L76.9424 10.5941H78.5168C78.5168 10.5941 78.156 20.0074 78.1232 21.4505C78.0904 22.9265 79.1728 25.7472 82.5512 25.7472C87.0775 25.7472 88.3567 23.1233 88.3567 23.1233C87.4711 23.4841 82.3544 24.2057 82.3544 21.5817Z" fill="white"/>
<path d="M98.7453 8.92132C99.5653 9.8069 99.8605 10.1677 100.188 10.5613C100.385 10.8237 100.484 11.1517 100.484 11.5124C100.484 11.8404 100.385 12.234 100.287 12.5948L97.7941 21.3521L94.4813 12.1356C94.3173 11.6108 94.1533 11.1517 94.1533 10.8893C94.1533 10.5285 94.4157 10.1021 95.3013 8.92132H87.659C88.807 10.0037 89.4958 10.9221 90.4141 13.0868L95.3997 25.288H97.7941L102.517 12.562C103.239 10.8565 104.124 9.93809 105.272 8.92132H98.7453Z" fill="white"/>
<path d="M113.652 23.3201C111.848 23.3201 110.437 23.1561 109.191 20.4994C109.027 20.1714 109.06 19.9746 109.06 19.9746L116.407 10.8893C116.407 10.8893 114.964 8.49494 111.257 8.49494C106.436 8.49494 104.337 12.0044 104.337 16.8587C104.337 22.9593 107.059 25.7144 111.225 25.7144C114.898 25.7144 116.407 23.3201 116.702 22.9593C115.718 23.1561 114.669 23.3201 113.652 23.3201ZM107.256 12.6932C107.321 11.414 107.617 10.7581 108.765 10.8237C111.52 10.9877 113.258 11.7748 111.585 14.3332C111.028 15.1859 108.666 18.7282 108.666 18.7282C108.666 18.6954 107.256 15.0219 107.256 12.6932Z" fill="white"/>
<path d="M117.271 25.288H123.569C122.289 23.2545 122.224 21.7457 122.224 21.4177V0C122.224 0 117.271 2.23033 117.271 2.29593C118.485 3.4111 118.485 5.21504 118.485 5.21504V21.4177C118.485 21.9753 118.485 23.8121 117.271 25.288Z" fill="white"/>
<path d="M132.194 8.49494C127.897 8.49494 124.387 10.7581 124.387 17.1211C124.387 23.4841 127.897 25.78 132.194 25.78C136.458 25.78 140 23.5169 140 17.2851C140 12.3652 137.376 8.49494 132.194 8.49494ZM136.261 21.7785C136.261 23.0905 135.736 23.7137 134.916 23.7137C132.456 23.7137 130.422 22.7625 129.373 20.401C128.192 17.8754 127.831 15.2515 127.831 12.4964C127.831 11.4468 128.225 10.8893 129.209 10.8893C131.669 10.8893 133.899 11.5124 135.047 13.7756C136.326 16.3011 136.261 18.9906 136.261 21.7785Z" fill="white"/>
</svg>
